<svg width="5" height="10" viewBox="0 0 5 10" fill="none" xmlns="http://www.w3.org/2000/svg">
<path d="M4.67391 5.87361L1.84783 9.11845C1.50362 9.51366 1.10978 9.60185 0.666304 9.38303C0.222101 9.16504 8.6426e-09 8.77525 1.53397e-08 8.21364L9.19842e-08 1.78636C9.86813e-08 1.22475 0.222101 0.834957 0.666304 0.616971C1.10978 0.398151 1.50362 0.486344 1.84783 0.88155L4.67391 4.12639C4.78261 4.25119 4.86413 4.38639 4.91848 4.53199C4.97283 4.6776 5 4.8336 5 5C5 5.1664 4.97283 5.3224 4.91848 5.46801C4.86413 5.61361 4.78261 5.74881 4.67391 5.87361Z" fill="black"/>
</svg>
