<svg width="71" height="68" viewBox="0 0 71 68" fill="none" xmlns="http://www.w3.org/2000/svg">
<path d="M36.8605 27.8862C33.8411 31.1853 28.7189 31.4119 25.4198 28.3925C22.1208 25.373 21.8941 20.2509 24.9136 16.9518C27.8242 13.7717 32.8998 13.0803 39.404 14.0605C39.7539 16.1294 39.8614 18.7029 39.5308 21.1809C39.1739 23.8565 38.3251 26.286 36.8605 27.8862Z" stroke="white" stroke-width="2.08984"/>
<path d="M34.3746 7.84809C37.5369 4.68574 42.6641 4.68574 45.8264 7.84809C48.9888 11.0104 48.9888 16.1376 45.8264 19.2999C42.7781 22.3483 37.6769 22.8146 31.2223 21.5479C30.9642 19.4655 30.9707 16.8898 31.4104 14.4288C31.8853 11.7715 32.8407 9.38195 34.3746 7.84809Z" stroke="white" stroke-width="2.08984"/>
<path d="M30.1958 9.83984L29.0464 16.3184" stroke="#002550" stroke-width="2.08984"/>
<path d="M41.7944 19.6621L41.063 24.3643" stroke="#002550" stroke-width="2.08984"/>
<path d="M11.2552 59.3359H2.82895V58.3194C3.61362 58.3194 4.18428 58.257 4.54095 58.1322C4.89762 57.9895 5.12053 57.7309 5.2097 57.3564C5.3167 56.9641 5.3702 56.3845 5.3702 55.6177V45.5329C5.3702 44.8196 5.3167 44.2668 5.2097 43.8744C5.12053 43.4821 4.89762 43.2057 4.54095 43.0452C4.18428 42.8669 3.61362 42.7777 2.82895 42.7777V41.7612H11.3087V42.7777C10.5062 42.7777 9.9177 42.8669 9.5432 43.0452C9.18653 43.2057 8.96362 43.491 8.87445 43.9012C8.80312 44.2935 8.76745 44.8374 8.76745 45.5329V55.6177C8.76745 56.3667 8.81203 56.9374 8.9012 57.3297C9.0082 57.722 9.23112 57.9895 9.56995 58.1322C9.92662 58.257 10.4884 58.3194 11.2552 58.3194V59.3359ZM29.9994 59.5232H27.7257L17.1862 45.5329H16.3034L15.6079 44.3292C15.2869 43.8834 14.9927 43.5534 14.7252 43.3394C14.4755 43.1254 14.208 42.9828 13.9227 42.9114C13.6552 42.8223 13.3253 42.7777 12.9329 42.7777V41.7612H18.6574L28.2339 54.4674H28.3677V46.2284C28.3677 45.4794 28.3231 44.8553 28.2339 44.3559C28.1448 43.8388 27.9218 43.4464 27.5652 43.1789C27.2263 42.9114 26.6468 42.7777 25.8264 42.7777V41.7612H32.4069V42.7777C31.6758 42.7777 31.1318 42.9114 30.7752 43.1789C30.4363 43.4464 30.2223 43.8477 30.1332 44.3827C30.044 44.8999 29.9994 45.5329 29.9994 46.2819V59.5232ZM19.4867 59.3359H12.9329V58.3194C13.6463 58.3194 14.1813 58.1411 14.5379 57.7844C14.8946 57.4099 15.1353 56.8928 15.2602 56.2329C15.385 55.5731 15.4474 54.7974 15.4474 53.9057V43.6337H17.0524V55.1362C17.0524 56.0279 17.1148 56.7055 17.2397 57.1692C17.3645 57.615 17.6053 57.9182 17.9619 58.0787C18.3186 58.2392 18.8268 58.3194 19.4867 58.3194V59.3359ZM42.5289 59.3359H33.9956V58.3194C34.6733 58.3194 35.1815 58.2659 35.5204 58.1589C35.877 58.0519 36.1178 57.8201 36.2426 57.4634C36.3675 57.1068 36.4299 56.5539 36.4299 55.8049V44.8374C36.4299 44.3024 36.3764 43.8923 36.2694 43.6069C36.1624 43.3038 35.9305 43.0898 35.5739 42.9649C35.235 42.8401 34.709 42.7777 33.9956 42.7777V41.7612H41.9136C43.1976 41.7612 44.3657 41.8949 45.4179 42.1624C46.4879 42.4299 47.335 42.8936 47.9591 43.5534C48.5833 44.1954 48.8954 45.0871 48.8954 46.2284C48.8954 47.2093 48.6814 48.0118 48.2534 48.6359C47.8432 49.2423 47.3082 49.7149 46.6484 50.0537C46.0064 50.3925 45.3109 50.6511 44.5619 50.8294V50.9632C44.8472 51.1415 45.1593 51.4358 45.4981 51.8459C45.8548 52.2561 46.3185 52.8714 46.8891 53.6917C47.4598 54.4942 48.2266 55.582 49.1896 56.9552C49.6176 57.5437 50.0367 57.9182 50.4469 58.0787C50.8749 58.2392 51.392 58.3194 51.9984 58.3194V59.3359H46.5414C45.8994 58.2481 45.3644 57.3475 44.9364 56.6342C44.5084 55.9209 44.1428 55.3324 43.8396 54.8687C43.5365 54.3872 43.26 53.9592 43.0104 53.5847C42.7785 53.1924 42.5289 52.7911 42.2614 52.3809C42.0117 51.9708 41.771 51.7211 41.5391 51.6319C41.3073 51.5249 40.9595 51.4714 40.4959 51.4714H39.8806V55.8317C39.8806 56.545 39.943 57.0889 40.0679 57.4634C40.1927 57.8201 40.4424 58.0519 40.8169 58.1589C41.1914 58.2659 41.762 58.3194 42.5289 58.3194V59.3359ZM39.8806 50.2677L40.8971 50.2944C41.8245 50.2409 42.6091 50.0894 43.2511 49.8397C43.911 49.59 44.4103 49.1888 44.7491 48.6359C45.1058 48.0831 45.2841 47.3252 45.2841 46.3622C45.2841 45.3279 44.9899 44.5075 44.4014 43.9012C43.8129 43.277 42.8588 42.9649 41.5391 42.9649C41.2538 42.9649 40.9685 42.9739 40.6831 42.9917C40.4156 42.9917 40.1481 43.0095 39.8806 43.0452V50.2677ZM67.6772 59.3359H52.724V58.3194C53.3838 58.3194 53.8921 58.2749 54.2487 58.1857C54.6232 58.0787 54.8818 57.8647 55.0245 57.5437C55.185 57.2227 55.2652 56.7234 55.2652 56.0457V45.2387C55.2652 44.561 55.2028 44.0528 55.078 43.7139C54.971 43.3573 54.7302 43.1165 54.3557 42.9917C53.9991 42.8669 53.4551 42.8044 52.724 42.8044V41.7612H67.4097L67.5702 46.4424H66.3932C66.2684 45.6043 66.0811 44.9534 65.8315 44.4897C65.5996 44.026 65.2162 43.705 64.6812 43.5267C64.1641 43.3484 63.3883 43.2592 62.354 43.2592H58.6625V49.6524H61.3375C62.1935 49.6524 62.8266 49.5989 63.2367 49.4919C63.6647 49.3849 63.9411 49.162 64.066 48.8232C64.2086 48.4665 64.28 47.9404 64.28 47.2449H65.3767V53.4242H64.28C64.28 52.6752 64.2086 52.1313 64.066 51.7924C63.9411 51.4358 63.6647 51.2129 63.2367 51.1237C62.8266 51.0167 62.1935 50.9632 61.3375 50.9632H58.6625V57.8647H61.926C62.8711 57.8647 63.638 57.8201 64.2265 57.7309C64.815 57.6239 65.2876 57.4367 65.6442 57.1692C66.0009 56.9017 66.2951 56.5272 66.527 56.0457C66.7588 55.5642 66.9906 54.94 67.2225 54.1732H68.346L67.6772 59.3359Z" fill="white"/>
<line x1="2.48047" y1="65.8623" x2="7.91406" y2="65.8623" stroke="white" stroke-width="0.208984"/>
<path d="M11.0136 66.9668V66.7333H11.4119V64.7431H11.0136V64.5096H12.1711V64.7431H11.7956V66.7333H12.1711V66.9668H11.0136ZM12.61 66.9668V66.7333H13.0035V64.7431H12.61V64.5096H13.4917L14.6525 66.5325V64.7431H14.2541V64.5096H15.3382V64.7431H14.9643V66.9668H14.5284L13.3153 64.8574V66.7333H13.6892V66.9668H12.61ZM15.7526 66.9668V66.7333H16.1461V64.7431H15.7526V64.5096H16.6343L17.7951 66.5325V64.7431H17.3967V64.5096H18.4808V64.7431H18.1069V66.9668H17.671L16.4579 64.8574V66.7333H16.8318V66.9668H15.7526ZM20.1393 67.0109C19.9913 67.0109 19.8531 66.9875 19.7246 66.9407C19.5962 66.8928 19.4857 66.8269 19.3932 66.7431C19.3039 66.6615 19.2272 66.5662 19.163 66.4574C19.0998 66.3475 19.0536 66.2315 19.0242 66.1096C18.9937 65.9888 18.9785 65.8642 18.9785 65.7357C18.9785 65.4702 19.04 65.2302 19.163 65.0157C19.2283 64.9025 19.3061 64.8057 19.3964 64.7251C19.4879 64.6435 19.5956 64.5787 19.7197 64.5308C19.8503 64.4829 19.9902 64.459 20.1393 64.459C20.2874 64.459 20.4256 64.4829 20.554 64.5308C20.6836 64.5787 20.794 64.6446 20.8855 64.7284C20.9747 64.81 21.0509 64.9058 21.114 65.0157C21.1772 65.1246 21.224 65.24 21.2544 65.3619C21.2838 65.4838 21.2985 65.6084 21.2985 65.7357C21.2985 66.0013 21.237 66.2413 21.114 66.4558C21.0487 66.569 20.9709 66.6658 20.8806 66.7464C20.7902 66.8269 20.683 66.8906 20.5589 66.9374C20.4305 66.9864 20.2906 67.0109 20.1393 67.0109ZM20.1393 66.7823C20.2536 66.7823 20.3586 66.7535 20.4544 66.6958C20.5513 66.637 20.6308 66.557 20.6928 66.4558C20.7538 66.3578 20.8 66.2473 20.8316 66.1243C20.8642 66.0002 20.8806 65.8718 20.8806 65.739C20.8806 65.6323 20.8702 65.5284 20.8495 65.4272C20.8299 65.3259 20.7995 65.2318 20.7581 65.1447C20.6678 64.9531 20.5486 64.8204 20.4006 64.7463C20.3211 64.7072 20.234 64.6876 20.1393 64.6876C20.025 64.6876 19.92 64.7169 19.8242 64.7757C19.7284 64.8334 19.649 64.9129 19.5858 65.0141C19.5249 65.1131 19.4781 65.2247 19.4454 65.3488C19.4128 65.4718 19.3964 65.5997 19.3964 65.7325C19.3964 65.9578 19.4378 66.157 19.5205 66.33C19.5641 66.4237 19.6147 66.5037 19.6724 66.5701C19.7311 66.6354 19.7997 66.6865 19.8781 66.7235C19.9586 66.7627 20.0457 66.7823 20.1393 66.7823ZM22.8672 67.0239C22.8095 67.0239 22.7627 67.0065 22.7268 66.9717C22.692 66.9369 22.6599 66.8775 22.6305 66.7937L21.8941 64.7431H21.5203V64.5096H22.6909V64.7431H22.3464L22.9407 66.4884L23.517 64.7431H23.0844V64.5096H24.1913V64.7431H23.7946L23.0909 66.7937C23.0702 66.8525 23.0501 66.8982 23.0305 66.9309C23.012 66.9635 22.9897 66.9869 22.9635 67.0011C22.9385 67.0163 22.9064 67.0239 22.8672 67.0239ZM23.9412 66.9668V66.7333H24.2351L25.0955 64.5096H25.4825L26.356 66.7333H26.6302V66.9668H25.5739V66.7333H25.938L25.711 66.1439H24.7673L24.5535 66.7333H24.9649V66.9668H23.9412ZM24.8441 65.9366H25.6294L25.2261 64.8296L24.8441 65.9366ZM27.1736 66.9668V66.7333H27.554V64.7431H26.9287V65.5023H26.625V64.5096H28.8553V65.5023H28.55V64.7431H27.9393V66.7333H28.3295V66.9668H27.1736ZM29.2958 66.9668V66.7333H29.6942V64.7431H29.2958V64.5096H30.4534V64.7431H30.0778V66.7333H30.4534V66.9668H29.2958ZM32.1363 67.0109C31.9883 67.0109 31.8501 66.9875 31.7216 66.9407C31.5932 66.8928 31.4827 66.8269 31.3902 66.7431C31.3009 66.6615 31.2242 66.5662 31.16 66.4574C31.0969 66.3475 31.0506 66.2315 31.0212 66.1096C30.9907 65.9888 30.9755 65.8642 30.9755 65.7357C30.9755 65.4702 31.037 65.2302 31.16 65.0157C31.2253 64.9025 31.3031 64.8057 31.3935 64.7251C31.4849 64.6435 31.5926 64.5787 31.7167 64.5308C31.8473 64.4829 31.9872 64.459 32.1363 64.459C32.2844 64.459 32.4226 64.4829 32.551 64.5308C32.6806 64.5787 32.791 64.6446 32.8825 64.7284C32.9717 64.81 33.0479 64.9058 33.111 65.0157C33.1742 65.1246 33.221 65.24 33.2515 65.3619C33.2808 65.4838 33.2955 65.6084 33.2955 65.7357C33.2955 66.0013 33.234 66.2413 33.111 66.4558C33.0457 66.569 32.9679 66.6658 32.8776 66.7464C32.7872 66.8269 32.68 66.8906 32.5559 66.9374C32.4275 66.9864 32.2876 67.0109 32.1363 67.0109ZM32.1363 66.7823C32.2506 66.7823 32.3557 66.7535 32.4514 66.6958C32.5483 66.637 32.6278 66.557 32.6898 66.4558C32.7508 66.3578 32.797 66.2473 32.8286 66.1243C32.8612 66.0002 32.8776 65.8718 32.8776 65.739C32.8776 65.6323 32.8672 65.5284 32.8465 65.4272C32.827 65.3259 32.7965 65.2318 32.7551 65.1447C32.6648 64.9531 32.5456 64.8204 32.3976 64.7463C32.3181 64.7072 32.231 64.6876 32.1363 64.6876C32.022 64.6876 31.917 64.7169 31.8212 64.7757C31.7254 64.8334 31.646 64.9129 31.5828 65.0141C31.5219 65.1131 31.4751 65.2247 31.4424 65.3488C31.4098 65.4718 31.3935 65.5997 31.3935 65.7325C31.3935 65.9578 31.4348 66.157 31.5175 66.33C31.5611 66.4237 31.6117 66.5037 31.6694 66.5701C31.7282 66.6354 31.7967 66.6865 31.8751 66.7235C31.9556 66.7627 32.0427 66.7823 32.1363 66.7823ZM33.8226 66.9668V66.7333H34.2161V64.7431H33.8226V64.5096H34.7042L35.8651 66.5325V64.7431H35.4667V64.5096H36.5508V64.7431H36.1769V66.9668H35.741L34.5279 64.8574V66.7333H34.9018V66.9668H33.8226ZM38.0783 66.9668V66.7333H38.4767V64.7431H38.0783V64.5096H39.2359V64.7431H38.8604V66.7333H39.2359V66.9668H38.0783ZM39.6748 66.9668V66.7333H40.0683V64.7431H39.6748V64.5096H40.5564L41.7173 66.5325V64.7431H41.3189V64.5096H42.403V64.7431H42.0291V66.9668H41.5932L40.3801 64.8574V66.7333H40.754V66.9668H39.6748ZM45.9747 67.0207C45.9083 67.0207 45.8479 67.0087 45.7935 66.9848C45.7401 66.9619 45.695 66.9298 45.6579 66.8884C45.6231 66.8503 45.5916 66.7981 45.5633 66.7317C45.535 66.6653 45.511 66.5929 45.4914 66.5145C45.4696 66.4253 45.4511 66.3366 45.4359 66.2484C45.4261 66.1864 45.4092 66.1292 45.3853 66.077C45.3613 66.0247 45.3358 65.9845 45.3086 65.9562C45.2824 65.93 45.2547 65.9077 45.2253 65.8892C45.1959 65.8707 45.1714 65.8587 45.1518 65.8533C45.1344 65.8489 45.1181 65.8468 45.1028 65.8468H44.7175V66.7333H45.0881V66.9668H43.9355V66.7333H44.3322V64.7431H43.9355V64.5096H44.8743H44.951C45.0228 64.5096 45.0827 64.5107 45.1306 64.5129C45.1796 64.515 45.2411 64.5194 45.3151 64.5259C45.4054 64.5346 45.4794 64.5466 45.5371 64.5618C45.5959 64.5771 45.6612 64.601 45.7331 64.6337C45.8016 64.6652 45.856 64.7033 45.8963 64.748C45.9377 64.7915 45.9725 64.8487 46.0008 64.9194C46.028 64.988 46.0416 65.0674 46.0416 65.1578C46.0416 65.3483 45.9823 65.4903 45.8637 65.5839C45.806 65.6285 45.7434 65.665 45.6759 65.6933C45.6084 65.7205 45.5273 65.7439 45.4326 65.7635C45.4958 65.7766 45.5486 65.7945 45.591 65.8174C45.6335 65.8402 45.6694 65.8702 45.6988 65.9072C45.726 65.9431 45.7477 65.9812 45.7641 66.0215C45.7815 66.0617 45.7994 66.1151 45.818 66.1815C45.8321 66.2348 45.8522 66.323 45.8784 66.446C45.8849 66.483 45.8947 66.5211 45.9077 66.5603C45.9208 66.5994 45.9339 66.6299 45.9469 66.6517C45.9611 66.6756 45.979 66.6952 46.0008 66.7105C46.0226 66.7257 46.0471 66.7333 46.0743 66.7333C46.1864 66.7333 46.2425 66.6305 46.2425 66.4247V66.1978H46.4629V66.4378C46.4629 66.8264 46.3001 67.0207 45.9747 67.0207ZM44.9216 65.6019C45.0968 65.6019 45.2389 65.5894 45.3477 65.5643C45.4566 65.5382 45.5415 65.4947 45.6024 65.4337C45.6656 65.3717 45.6971 65.2895 45.6971 65.1872C45.6971 65.099 45.6813 65.0261 45.6498 64.9684C45.6182 64.9107 45.5681 64.865 45.4996 64.8312C45.4321 64.7997 45.3521 64.7774 45.2596 64.7643C45.1681 64.7501 45.0511 64.7431 44.9085 64.7431H44.7175V65.6019H44.9216ZM46.856 66.9668V66.7333H47.2577V64.7431H46.856V64.5096H49.0765V65.4549H48.781V64.7431H47.6413V65.6264H48.2503V65.2247H48.4675V66.2386H48.2503V65.8125H47.6413V66.7333H48.781V66.0345H49.0765V66.9668H46.856ZM49.5725 66.9668V66.7333H49.8664L50.7268 64.5096H51.1137L51.9872 66.7333H52.2615V66.9668H51.2052V66.7333H51.5693L51.3423 66.1439H50.3986L50.1847 66.7333H50.5962V66.9668H49.5725ZM50.4754 65.9366H51.2607L50.8574 64.8296L50.4754 65.9366ZM52.6612 66.9668V66.7333H53.058V64.7431H52.6612V64.5096H53.8172V64.7431H53.4433V66.7333H54.3657V65.9464H54.6711V66.9668H52.6612ZM55.425 66.9668V66.7333H55.8054V64.7431H55.1801V65.5023H54.8764V64.5096H57.1067V65.5023H56.8014V64.7431H56.1908V66.7333H56.581V66.9668H55.425ZM58.1774 66.9668V66.7333H58.5742V65.9953L57.8688 64.7431H57.5358V64.5096H58.628V64.7431H58.2542L58.806 65.757L59.3742 64.7431H59.0101V64.5096H59.9995V64.7431H59.6909L58.9595 66.0035V66.7333H59.3334V66.9668H58.1774Z" fill="white"/>
<line x1="63.0859" y1="65.8623" x2="68.5195" y2="65.8623" stroke="white" stroke-width="0.208984"/>
</svg>
