<svg width="5" height="10" viewBox="0 0 5 10" fill="none" xmlns="http://www.w3.org/2000/svg">
<path d="M0.326087 4.12639L3.15217 0.881549C3.49638 0.486344 3.89022 0.398151 4.3337 0.61697C4.7779 0.834957 5 1.22475 5 1.78636L5 8.21364C5 8.77525 4.7779 9.16504 4.33369 9.38303C3.89022 9.60185 3.49638 9.51366 3.15217 9.11845L0.326087 5.87361C0.217391 5.74881 0.13587 5.61361 0.0815224 5.46801C0.0271745 5.3224 -4.63596e-07 5.1664 -4.47064e-07 5C-4.30533e-07 4.8336 0.0271745 4.6776 0.0815225 4.53199C0.13587 4.38639 0.217391 4.25119 0.326087 4.12639Z" fill="#1A1A1A"/>
</svg>
